<mxfile host="app.diagrams.net" agent="Mozilla/5.0 (Windows NT 10.0; Win64; x64) AppleWebKit/537.36 (KHTML, like Gecko) Chrome/134.0.0.0 Safari/537.36 Edg/134.0.0.0" version="26.1.0">
  <diagram name="Page-1" id="tsWko6ecflzNUC_uV28E">
    <mxGraphModel dx="1648" dy="919" grid="1" gridSize="10" guides="1" tooltips="1" connect="1" arrows="1" fold="1" page="1" pageScale="1" pageWidth="827" pageHeight="1169" math="0" shadow="0">
      <root>
        <mxCell id="0" />
        <mxCell id="1" parent="0" />
        <mxCell id="reMlrcztLfvmdYYnip-N-3" value="" style="rounded=0;whiteSpace=wrap;html=1;rotation=90;" vertex="1" parent="1">
          <mxGeometry x="339" y="300" width="120" height="60" as="geometry" />
        </mxCell>
        <mxCell id="reMlrcztLfvmdYYnip-N-4" value="" style="rounded=0;whiteSpace=wrap;html=1;rotation=90;" vertex="1" parent="1">
          <mxGeometry x="349" y="310" width="120" height="60" as="geometry" />
        </mxCell>
        <mxCell id="reMlrcztLfvmdYYnip-N-5" value="" style="rounded=0;whiteSpace=wrap;html=1;rotation=90;" vertex="1" parent="1">
          <mxGeometry x="359" y="320" width="120" height="60" as="geometry" />
        </mxCell>
        <mxCell id="reMlrcztLfvmdYYnip-N-6" value="" style="rounded=0;whiteSpace=wrap;html=1;rotation=90;" vertex="1" parent="1">
          <mxGeometry x="369" y="330" width="120" height="60" as="geometry" />
        </mxCell>
        <mxCell id="reMlrcztLfvmdYYnip-N-7" value="" style="ellipse;shape=cloud;whiteSpace=wrap;html=1;" vertex="1" parent="1">
          <mxGeometry x="60" y="160" width="190" height="140" as="geometry" />
        </mxCell>
      </root>
    </mxGraphModel>
  </diagram>
</mxfile>
